In this terrifying glimpse into the "American Dream" gone wrong, an unexplainable phenomenon has taken over the citizens of Ogden Marsh.

One by one the townsfolk are falling victim to an unknown toxin and are turning sadistically violent.

People who days ago lived quiet, unremarkable lives are now depraved, blood-thirsty killers. While Sheriff Dutton and his pregnant wife, Judy, try to make sense of the escalating violence, the government uses deadly force to close off all access and won't let anyone in or out – even those uninfected.

In this film that Pat Jankiewicz of Fangoria calls "disturbing", an ordinary night becomes a horrifying struggle for the few remaining survivors as they do their best to get out of town alive... 
http://www.imdb.com/title/tt0455407

========INFO=========

Video
ID : 0
Format : MPEG-4 Visual
Format profile : Advanced Simple@L5
Format settings, BVOP : Yes
Format settings, QPel : No
Format settings, GMC : No warppoints
Format settings, Matrix : Custom
Muxing mode : Packed bitstream
Codec ID : XVID
Codec ID/Hint : XviD
Duration : 1h 40mn
Bit rate : 3 071 Kbps
Width : 1 280 pixels
Height : 544 pixels
Display aspect ratio : 2.35:1
Frame rate : 23.976 fps
Resolution : 8 bits
Colorimetry : 4:2:0
Scan type : Progressive
Bits/(Pixel*Frame) : 0.184
Stream size : 2.17 GiB (89%)
Writing library : XviD 1.2.1 (UTC 2008-12-04)

Audio
ID : 1
Format : AC-3
Format/Info : Audio Coding 3
Codec ID : 2000
Duration : 1h 40mn
Bit rate mode : Constant
Bit rate : 384 Kbps
Channel(s) : 2 channels
Channel positions : L R
Sampling rate : 48.0 KHz
Stream size : 276 MiB (11%)
Alignment : Split accross interleaves
Interleave, duration : 42 ms (1.00 video frame)
Interleave, preload duration : 500 ms
==============================

SCREENS:
http://bayimg.com/image/oamgoaaci.jpg
http://bayimg.com/image/oamgpaaci.jpg
http://bayimg.com/image/pamgaaaci.jpg
http://bayimg.com/image/pamgcaaci.jpg
http://bayimg.com/image/pamgdaaci.jpg